<?xml version="1.0" encoding="UTF-8" standalone="no"?>
<!-- Uploaded to: SVG Repo, www.svgrepo.com, Generator: SVG Repo Mixer Tools -->

<svg
   version="1.1"
   id="Uploaded to svgrepo.com"
   width="800px"
   height="800px"
   viewBox="0 0 32 32"
   xml:space="preserve"
   sodipodi:docname="design.svg"
   inkscape:version="1.4.2 (ebf0e940d0, 2025-05-08)"
   xmlns:inkscape="http://www.inkscape.org/namespaces/inkscape"
   xmlns:sodipodi="http://sodipodi.sourceforge.net/DTD/sodipodi-0.dtd"
   xmlns="http://www.w3.org/2000/svg"
   xmlns:svg="http://www.w3.org/2000/svg"><defs
   id="defs1" /><sodipodi:namedview
   id="namedview1"
   pagecolor="#ffffff"
   bordercolor="#000000"
   borderopacity="0.25"
   inkscape:showpageshadow="2"
   inkscape:pageopacity="0.0"
   inkscape:pagecheckerboard="0"
   inkscape:deskcolor="#d1d1d1"
   inkscape:zoom="1"
   inkscape:cx="399.5"
   inkscape:cy="400"
   inkscape:window-width="1920"
   inkscape:window-height="1011"
   inkscape:window-x="0"
   inkscape:window-y="0"
   inkscape:window-maximized="1"
   inkscape:current-layer="Uploaded to svgrepo.com" />
<style
   type="text/css"
   id="style1">
	.linesandangles_een{fill:#111918;}
</style>
<path
   class="linesandangles_een"
   d="M20,20.854c0-1.136,0.642-2.175,1.658-2.683L24,17L17,3h-2L8,17l2.342,1.171  C11.358,18.679,12,19.718,12,20.854V21h-2v8h12v-8h-2V20.854z M11.236,16.382l-0.553-0.276L15,7.472V15h2V7.472l4.317,8.633  l-0.553,0.276C19.059,17.234,18,18.948,18,20.854V21h-4v-0.146C14,18.948,12.941,17.234,11.236,16.382z M20,27h-8v-4h8V27z"
   id="path1"
   style="fill:#845ef7;fill-opacity:1" />
</svg>
