<?xml version="1.0" encoding="UTF-8" standalone="no"?><!DOCTYPE svg PUBLIC "-//W3C//DTD SVG 1.1//EN" "http://www.w3.org/Graphics/SVG/1.1/DTD/svg11.dtd"><svg width="100%" height="100%" viewBox="0 0 237 237" version="1.1" xmlns="http://www.w3.org/2000/svg" xmlns:xlink="http://www.w3.org/1999/xlink" xml:space="preserve" xmlns:serif="http://www.serif.com/" style="fill-rule:evenodd;clip-rule:evenodd;stroke-linejoin:round;stroke-miterlimit:2;"><g><path d="M117.5,69.583c-29.167,0 -53.333,23.75 -53.333,53.334c-0,29.583 23.75,53.333 53.333,53.333c29.583,0 53.333,-24.167 53.333,-53.333c0,-29.167 -24.166,-53.334 -53.333,-53.334Zm0,87.5c-18.75,0 -34.167,-15.416 -34.167,-34.166c0,-18.75 15.417,-34.167 34.167,-34.167c18.75,0 34.167,15.417 34.167,34.167c-0,18.75 -15.417,34.166 -34.167,34.166Z" style="fill:#fff;fill-rule:nonzero;"/><circle cx="172.917" cy="68.333" r="12.083" style="fill:#fff;"/><path d="M204.167,37.083c-10.834,-11.25 -26.25,-17.083 -43.75,-17.083l-85.834,0c-36.25,0 -60.416,24.167 -60.416,60.417l-0,85.416c-0,17.917 5.833,33.334 17.5,44.584c11.25,10.833 26.25,16.25 43.333,16.25l85,-0c17.917,-0 32.917,-5.834 43.75,-16.25c11.25,-10.834 17.083,-26.25 17.083,-44.167l0,-85.833c0,-17.5 -5.833,-32.5 -16.666,-43.334Zm-1.667,129.167c0,12.917 -4.583,23.333 -12.083,30.417c-7.5,7.083 -17.917,10.833 -30.417,10.833l-85,0c-12.5,0 -22.917,-3.75 -30.417,-10.833c-7.5,-7.5 -11.25,-17.917 -11.25,-30.834l0,-85.416c0,-12.5 3.75,-22.917 11.25,-30.417c7.084,-7.083 17.917,-10.833 30.417,-10.833l85.833,-0c12.5,-0 22.917,3.75 30.417,11.25c7.083,7.5 11.25,17.916 11.25,30l0,85.833Z" style="fill:#fff;fill-rule:nonzero;"/></g></svg>