<?xml version="1.0" encoding="UTF-8" standalone="no"?><svg xmlns:xlink="http://www.w3.org/1999/xlink" width="28" xmlns="http://www.w3.org/2000/svg" height="28" id="screenshot-9f6e0d34-ae61-8034-8003-a16ed57e812a" viewBox="0 0 28 28" style="-webkit-print-color-adjust: exact;" fill="none" version="1.1"><g xmlns:xlink="http://www.w3.org/1999/xlink" width="32px" xml:space="preserve" height="32px" id="shape-9f6e0d34-ae61-8034-8003-a16ed57e812a" style="fill: rgb(0, 0, 0);" ry="0" rx="0" version="1.1" enable-background="new 0 0 32 32"><g id="shape-9f6e0d34-ae61-8034-8003-a16ed57e812c" rx="0" ry="0" style="fill: rgb(0, 0, 0);"><g id="shape-9f6e0d34-ae61-8034-8003-a16ed57e812d"><g class="fills" id="fills-9f6e0d34-ae61-8034-8003-a16ed57e812d"><path rx="0" ry="0" d="M4.360,7.766L4.360,7.766ZC2.325,7.766,0.875,6.441,0.875,4.616C0.875,2.788,2.356,1.460,4.395,1.460C6.401,1.460,7.832,2.752,7.875,4.601C7.875,6.439,6.397,7.766,4.360,7.766ZZM4.395,2.335C2.838,2.335,1.750,3.273,1.750,4.616C1.750,5.955,2.808,6.891,4.322,6.891L4.360,6.891C5.915,6.891,7.000,5.953,7.000,4.611C6.968,3.232,5.946,2.335,4.395,2.335ZZ" style="fill: rgb(255, 255, 255); fill-opacity: 1;"/></g></g><g id="shape-9f6e0d34-ae61-8034-8003-a16ed57e812e"><g class="fills" id="fills-9f6e0d34-ae61-8034-8003-a16ed57e812e"><path rx="0" ry="0" d="M6.563,25.375L2.188,25.375C1.946,25.375,1.750,25.179,1.750,24.938L1.750,9.188C1.750,8.946,1.946,8.750,2.188,8.750L6.563,8.750C6.804,8.750,7.000,8.946,7.000,9.188L7.000,24.938C7.000,25.179,6.804,25.375,6.563,25.375ZZM2.625,24.500L6.125,24.500L6.125,9.625L2.625,9.625L2.625,24.500ZZ" style="fill: rgb(255, 255, 255); fill-opacity: 1;"/></g></g><g id="shape-9f6e0d34-ae61-8034-8003-a16ed57e812f"><g class="fills" id="fills-9f6e0d34-ae61-8034-8003-a16ed57e812f"><path rx="0" ry="0" d="M26.688,25.375L21.438,25.375C21.196,25.375,21.000,25.179,21.000,24.938L21.000,16.625C21.000,15.178,19.822,14.000,18.375,14.000C16.928,14.000,15.750,15.178,15.750,16.625L15.750,24.938C15.750,25.179,15.554,25.375,15.313,25.375L10.063,25.375C9.821,25.375,9.625,25.179,9.625,24.938L9.625,9.188C9.625,8.946,9.821,8.750,10.063,8.750L15.313,8.750C15.554,8.750,15.750,8.946,15.750,9.188L15.750,11.825C15.750,12.066,15.554,12.262,15.313,12.262C15.071,12.262,14.875,12.066,14.875,11.825L14.875,9.625L10.500,9.625L10.500,24.500L14.875,24.500L14.875,16.625C14.875,14.695,16.445,13.125,18.375,13.125C20.305,13.125,21.875,14.695,21.875,16.625L21.875,24.500L26.250,24.500L26.250,15.313C26.250,12.177,23.698,9.625,20.563,9.625C19.351,9.625,18.181,9.980,17.175,10.651C16.975,10.784,16.703,10.732,16.569,10.531C16.435,10.329,16.488,10.058,16.691,9.924C17.840,9.156,19.178,8.750,20.563,8.750C24.181,8.750,27.125,11.693,27.125,15.313L27.125,24.938C27.125,25.179,26.929,25.375,26.688,25.375ZZ" style="fill: rgb(255, 255, 255); fill-opacity: 1;"/></g></g></g></g></svg>