<?xml version="1.0" encoding="UTF-8" standalone="no"?>
<svg
   fill="none"
   height="24"
   viewBox="0 0 24 24"
   width="24"
   version="1.1"
   id="svg3"
   sodipodi:docname="9057113_menu_icon.svg"
   inkscape:version="1.4.2 (ebf0e94, 2025-05-08)"
   xmlns:inkscape="http://www.inkscape.org/namespaces/inkscape"
   xmlns:sodipodi="http://sodipodi.sourceforge.net/DTD/sodipodi-0.dtd"
   xmlns="http://www.w3.org/2000/svg"
   xmlns:svg="http://www.w3.org/2000/svg">
  <defs
     id="defs3" />
  <sodipodi:namedview
     id="namedview3"
     pagecolor="#ffffff"
     bordercolor="#000000"
     borderopacity="0.25"
     inkscape:showpageshadow="2"
     inkscape:pageopacity="0.0"
     inkscape:pagecheckerboard="0"
     inkscape:deskcolor="#d1d1d1"
     inkscape:zoom="22.333333"
     inkscape:cx="12"
     inkscape:cy="12"
     inkscape:window-width="1366"
     inkscape:window-height="697"
     inkscape:window-x="-8"
     inkscape:window-y="220"
     inkscape:window-maximized="1"
     inkscape:current-layer="svg3" />
  <path
     d="M2 6C2 5.44772 2.44772 5 3 5H21C21.5523 5 22 5.44772 22 6C22 6.55228 21.5523 7 21 7H3C2.44772 7 2 6.55228 2 6Z"
     fill="currentColor"
     id="path1"
     style="fill:#ffffff" />
  <path
     d="M2 12.0322C2 11.4799 2.44772 11.0322 3 11.0322H21C21.5523 11.0322 22 11.4799 22 12.0322C22 12.5845 21.5523 13.0322 21 13.0322H3C2.44772 13.0322 2 12.5845 2 12.0322Z"
     fill="currentColor"
     id="path2"
     style="fill:#ffffff" />
  <path
     d="M3 17.0645C2.44772 17.0645 2 17.5122 2 18.0645C2 18.6167 2.44772 19.0645 3 19.0645H21C21.5523 19.0645 22 18.6167 22 18.0645C22 17.5122 21.5523 17.0645 21 17.0645H3Z"
     fill="currentColor"
     id="path3"
     style="fill:#ffffff" />
</svg>
