<?xml version="1.0" encoding="UTF-8" standalone="no"?><!DOCTYPE svg PUBLIC "-//W3C//DTD SVG 1.1//EN" "http://www.w3.org/Graphics/SVG/1.1/DTD/svg11.dtd"><svg width="100%" height="100%" viewBox="0 0 100 100" version="1.1" xmlns="http://www.w3.org/2000/svg" xmlns:xlink="http://www.w3.org/1999/xlink" xml:space="preserve" xmlns:serif="http://www.serif.com/" style="fill-rule:evenodd;clip-rule:evenodd;stroke-linejoin:round;stroke-miterlimit:2;"><g><path d="M5.6,15.152c0.551,-0.994 1.597,-1.61 2.733,-1.61l14.584,-0c1.725,-0 3.125,1.399 3.125,3.125c-0,1.726 -1.4,3.125 -3.125,3.125l-8.945,-0l36.028,57.645l36.028,-57.645l-6.836,-0c-1.726,-0 -3.125,-1.399 -3.125,-3.125c0,-1.726 1.399,-3.125 3.125,-3.125l12.475,-0c1.135,-0 2.182,0.616 2.733,1.61c0.551,0.994 0.519,2.208 -0.083,3.171l-41.667,66.667c-0.571,0.914 -1.573,1.469 -2.65,1.469c-1.078,-0 -2.079,-0.555 -2.65,-1.469l-41.667,-66.667c-0.602,-0.963 -0.634,-2.177 -0.083,-3.171Zm30.858,1.515c0,-1.726 1.399,-3.125 3.125,-3.125l27.135,-0c1.726,-0 3.125,1.399 3.125,3.125c-0,1.726 -1.399,3.125 -3.125,3.125l-27.135,-0c-1.726,-0 -3.125,-1.399 -3.125,-3.125Z" style="fill:#fff;"/><path d="M80.845,14.03c1.455,0.927 1.885,2.859 0.958,4.315l-29.167,45.833c-0.581,0.914 -1.594,1.461 -2.677,1.447c-1.083,-0.014 -2.082,-0.588 -2.639,-1.517l-6.25,-10.417c-0.613,-1.022 -0.591,-2.304 0.056,-3.305l22.917,-35.417c0.937,-1.449 2.872,-1.863 4.321,-0.926c1.449,0.938 1.864,2.873 0.926,4.322l-21.858,33.781l2.646,4.41l26.452,-41.567c0.927,-1.456 2.858,-1.885 4.315,-0.959Z" style="fill:#fff;"/></g></svg>