<?xml version="1.0" encoding="UTF-8" standalone="no"?><svg xmlns:xlink="http://www.w3.org/1999/xlink" width="32" xmlns="http://www.w3.org/2000/svg" height="32" id="screenshot-9f6e0d34-ae61-8034-8003-a16ea870f40e" viewBox="0 0 32 32" style="-webkit-print-color-adjust: exact;" fill="none" version="1.1"><g xmlns:xlink="http://www.w3.org/1999/xlink" width="32px" xml:space="preserve" height="32px" id="shape-9f6e0d34-ae61-8034-8003-a16ea870f40e" style="fill: rgb(0, 0, 0);" ry="0" rx="0" version="1.1" enable-background="new 0 0 32 32"><g id="shape-9f6e0d34-ae61-8034-8003-a16ea870f410" rx="0" ry="0" style="fill: rgb(0, 0, 0);"><g id="shape-9f6e0d34-ae61-8034-8003-a16ea870f411"><g class="fills" id="fills-9f6e0d34-ae61-8034-8003-a16ea870f411"><path rx="0" ry="0" d="M16.000,27.000C15.999,27.000,15.997,27.000,16.000,27.000ZC15.686,26.997,8.407,26.926,6.091,26.698C5.945,26.672,5.822,26.657,5.684,26.640C4.910,26.544,3.615,26.384,2.575,25.263C1.610,24.259,1.306,22.119,1.294,22.028C1.281,21.919,1.000,19.545,1.000,17.128L1.000,14.862C1.000,12.444,1.281,10.070,1.293,9.970C1.307,9.871,1.610,7.731,2.581,6.720C3.699,5.515,4.944,5.391,5.613,5.324L5.788,5.305C9.841,5.003,15.933,5.000,15.994,5.000C16.067,5.000,22.159,5.003,26.189,5.303L26.387,5.324C27.056,5.390,28.301,5.514,29.424,6.726C30.389,7.731,30.694,9.871,30.706,9.961C30.719,10.070,31.000,12.444,31.000,14.862L31.000,17.128C31.000,19.546,30.719,21.920,30.707,22.020C30.693,22.119,30.389,24.259,29.417,25.270C28.301,26.475,27.057,26.600,26.388,26.667L26.212,26.686C22.159,26.988,16.062,27.000,16.000,27.000ZZM16.006,6.000C15.934,6.000,9.878,6.003,5.885,6.300L5.712,6.319C5.137,6.376,4.175,6.472,3.309,7.406C2.682,8.060,2.357,9.570,2.285,10.098C2.283,10.113,2.000,12.506,2.000,14.862L2.000,17.128C2.000,19.486,2.283,21.877,2.286,21.900C2.358,22.420,2.684,23.932,3.302,24.576C4.099,25.435,5.086,25.557,5.807,25.647C5.971,25.668,6.116,25.686,6.235,25.709C8.445,25.925,15.826,25.998,16.002,26.000C16.162,26.000,22.155,25.985,26.115,25.690L26.289,25.671C26.864,25.613,27.826,25.517,28.691,24.583C29.318,23.930,29.643,22.419,29.716,21.892C29.717,21.876,30.000,19.484,30.000,17.128L30.000,14.862C30.000,12.506,29.717,10.113,29.714,10.089C29.642,9.569,29.315,8.057,28.696,7.412C27.825,6.472,26.863,6.376,26.288,6.319L26.091,6.298C22.122,6.003,16.066,6.000,16.006,6.000ZZ" style="fill: rgb(255, 255, 255); fill-opacity: 1;"/></g></g><g id="shape-9f6e0d34-ae61-8034-8003-a16ea870f412"><g class="fills" id="fills-9f6e0d34-ae61-8034-8003-a16ea870f412"><path rx="0" ry="0" d="M12.500,20.000C12.405,20.000,12.310,19.973,12.228,19.919C12.085,19.827,12.000,19.669,12.000,19.500L12.000,13.531C12.000,13.255,12.224,13.031,12.500,13.031C12.776,13.031,13.000,13.255,13.000,13.531L13.000,18.730L20.269,15.500L12.297,11.957C12.045,11.845,11.931,11.549,12.043,11.297C12.155,11.045,12.451,10.931,12.703,11.043L21.703,15.043C21.884,15.124,22.000,15.302,22.000,15.500C22.000,15.698,21.884,15.876,21.703,15.957L12.703,19.957C12.638,19.986,12.569,20.000,12.500,20.000ZZ" style="fill: rgb(255, 255, 255); fill-opacity: 1;"/></g></g></g></g></svg>