<?xml version="1.0" encoding="UTF-8" standalone="no"?><!DOCTYPE svg PUBLIC "-//W3C//DTD SVG 1.1//EN" "http://www.w3.org/Graphics/SVG/1.1/DTD/svg11.dtd"><svg width="100%" height="100%" viewBox="0 0 8892 8892" version="1.1" xmlns="http://www.w3.org/2000/svg" xmlns:xlink="http://www.w3.org/1999/xlink" xml:space="preserve" xmlns:serif="http://www.serif.com/" style="fill-rule:evenodd;clip-rule:evenodd;stroke-linejoin:round;stroke-miterlimit:2;"><g id="_x33_95-youtube"><g><path d="M8270.62,2515.42c-91.858,-345.817 -362.467,-618.196 -706.079,-710.642c-622.775,-167.933 -3120.08,-167.933 -3120.08,-167.933c0.001,-0 -2497.31,-0 -3120.12,167.95c-343.596,92.446 -614.205,364.808 -706.042,710.641c-166.875,626.825 -166.875,1934.69 -166.875,1934.69c-0,-0 -0,1307.88 166.875,1934.69c91.837,345.834 362.446,606.859 706.042,699.325c622.812,167.934 3120.12,167.934 3120.12,167.934c-0.001,-0 2497.31,-0 3120.09,-167.95c343.608,-92.467 614.217,-353.492 706.075,-699.325c166.875,-626.804 166.875,-1934.69 166.875,-1934.69c0,0 0,-1307.85 -166.875,-1934.69Zm-4642.92,3116.47l0,-2374.88l2087.26,1187.47l-2087.26,1187.41Z" style="fill:#fff;fill-rule:nonzero;"/><circle cx="7531.87" cy="2144.72" r="1270.78" style="fill:#f00;"/></g></g></svg>